<svg version="1.0"
        xmlns="http://www.w3.org/2000/svg"
        width="150pt"
        height="150pt"
        viewBox="0 0 150 150"
        preserveAspectRatio="xMidYMid meet">
        <g transform="translate(0.000000,150.000000) scale(0.100000,-0.100000)"
                fill="none">
                <path d="M0 750 l0 -750 750 0 750 0 0 750 0 750 -750 0 -750 0 0 -750z m889
			615 c32 -16 41 -33 41 -76 0 -35 -39 -79 -69 -79 -27 0 -35 17 -12 23 49 13
			43 87 -7 87 -74 0 -70 -54 12 -163 74 -100 90 -140 84 -209 -17 -174 -255
			-245 -377 -114 -29 31 -23 33 21 6 48 -29 93 -26 129 9 41 41 39 89 -6 161
			-53 82 -41 150 27 150 33 0 32 -2 13 43 -8 20 -15 55 -15 77 0 81 83 125 159
			85z m-449 -541 c-62 -52 -21 -91 125 -119 219 -42 538 12 510 87 -3 8 -19 22
			-36 32 -17 10 -28 20 -25 23 10 10 66 -20 90 -48 20 -24 29 -27 63 -22 74 10
			133 -43 133 -120 0 -66 -68 -114 -134 -96 -42 12 -53 27 -16 21 46 -7 80 20
			80 63 0 48 -37 73 -80 55 -35 -15 -51 -38 -75 -110 -10 -30 -30 -83 -45 -116
			l-28 -61 37 -17 c49 -21 79 -54 87 -94 6 -29 2 -37 -35 -72 -69 -65 -149 -85
			-351 -85 -145 0 -174 3 -240 23 -85 27 -150 81 -150 125 0 34 52 93 96 109 19
			7 33 15 32 18 -2 3 -20 39 -41 82 -46 92 -83 251 -68 285 11 24 66 63 89 63 8
			0 -1 -12 -18 -26z" />
                <path d="M710 1101 c0 -10 20 -44 44 -76 53 -68 62 -100 42 -148 -20 -49 3
			-40 32 12 31 55 29 122 -4 179 -26 44 -26 44 -38 21 -6 -14 -22 -25 -36 -27
			-23 -2 -24 -1 -7 11 26 21 22 47 -8 47 -18 0 -25 -5 -25 -19z" />
                <path d="M509 342 c-49 -40 7 -83 134 -103 165 -26 367 25 343 86 -9 25 -34
			28 -63 7 -37 -26 -126 -52 -178 -52 -55 0 -128 22 -175 54 -37 25 -39 25 -61
			8z" />
        </g>
</svg>
